<?xml version="1.0" encoding="UTF-8" standalone="no"?><!DOCTYPE svg PUBLIC "-//W3C//DTD SVG 1.1//EN" "http://www.w3.org/Graphics/SVG/1.1/DTD/svg11.dtd"><svg width="100%" height="100%" viewBox="0 0 2550 2550" version="1.1" xmlns="http://www.w3.org/2000/svg" xmlns:xlink="http://www.w3.org/1999/xlink" xml:space="preserve" xmlns:serif="http://www.serif.com/" style="fill-rule:evenodd;clip-rule:evenodd;stroke-linejoin:round;stroke-miterlimit:1.5;"><g id="Fish"><g id="Fishy-fish" serif:id="Fishy fish"><path d="M281.554,1288.81c-0,0 308.2,168.919 440.285,168.919c93.229,0 168.919,-75.69 168.919,-168.919c0,-93.229 -75.69,-168.919 -168.919,-168.919c-132.085,0 -440.285,168.919 -440.285,168.919Z" style="fill:#104fa7;stroke:#4db3a0;stroke-width:41.67px;"/><path d="M1270.41,509.135c119.422,34.915 183.135,176.962 142.189,317.009c-40.945,140.046 -171.143,225.399 -290.565,190.484c53.137,-48.733 109.507,-133.546 139.101,-234.768c29.594,-101.221 27.791,-203.043 9.275,-272.725Z" style="fill:#104fa7;stroke:#4db3a0;stroke-width:41.67px;"/><path d="M2268.45,1254.55c0,-0 -308.2,168.919 -440.285,168.919c-93.229,-0 -168.919,-75.69 -168.919,-168.919c-0,-93.229 75.69,-168.919 168.919,-168.919c132.085,0 440.285,168.919 440.285,168.919Z" style="fill:#104fa7;stroke:#4db3a0;stroke-width:41.67px;"/><path d="M639.03,733.637c-0,423.138 284.304,766.672 634.487,766.672c350.183,-0 634.487,-343.534 634.487,-766.672c-148.047,126.942 -381.385,230.002 -634.487,230.002c-253.102,-0 -486.44,-103.06 -634.487,-230.002Z" style="fill:#f20d0d;stroke:#4db3a0;stroke-width:41.67px;"/><ellipse cx="1273.52" cy="1262.38" rx="716.956" ry="462.624" style="fill:#047dc6;stroke:#4db3a0;stroke-width:41.67px;stroke-linecap:round;"/><g><path d="M1040.91,1558.61c-110.77,-18.727 -85.236,-122.394 -84.499,-166.57c0.998,-59.82 143.941,-106.014 319.008,-103.092c175.067,2.921 306.477,54.518 315.391,113.678c27.057,179.587 -142.13,158.905 -317.197,155.984c-45.781,-0.764 -193.479,6.631 -232.703,0Z" style="fill:none;"/><clipPath id="_clip1"><path d="M1040.91,1558.61c-110.77,-18.727 -85.236,-122.394 -84.499,-166.57c0.998,-59.82 143.941,-106.014 319.008,-103.092c175.067,2.921 306.477,54.518 315.391,113.678c27.057,179.587 -142.13,158.905 -317.197,155.984c-45.781,-0.764 -193.479,6.631 -232.703,0Z"/></clipPath><g clip-path="url(#_clip1)"><g><path d="M1534.72,1509.68l-49.25,-217.653l105.733,1.765l-56.483,215.888Z" style="fill:#fff;stroke:#104fa7;stroke-width:18.75px;"/><path d="M1428.99,1507.92l-49.25,-217.652l105.733,1.764l-56.483,215.888Z" style="fill:#fff;stroke:#104fa7;stroke-width:18.75px;"/><path d="M1323.25,1506.16l-49.249,-217.652l105.733,1.764l-56.484,215.888Z" style="fill:#fff;stroke:#104fa7;stroke-width:18.75px;"/><path d="M1217.52,1504.39l-49.249,-217.653l105.733,1.765l-56.484,215.888Z" style="fill:#fff;stroke:#104fa7;stroke-width:18.75px;"/><path d="M1111.79,1502.63l-49.249,-217.652l105.733,1.764l-56.484,215.888Z" style="fill:#fff;stroke:#104fa7;stroke-width:18.75px;"/><path d="M1006.06,1500.86l-49.249,-217.652l105.733,1.764l-56.484,215.888Z" style="fill:#fff;stroke:#104fa7;stroke-width:18.75px;"/></g></g><path d="M956.409,1392.04c0.998,-59.82 143.941,-106.014 319.008,-103.092c175.067,2.921 316.389,53.858 315.391,113.678" style="fill:none;stroke:#104fa7;stroke-width:18.75px;"/></g><g><g><circle cx="1003.49" cy="1088.64" r="94.428" style="fill:#fff;stroke:#104fa7;stroke-width:18.75px;"/><circle cx="1009.52" cy="1080.13" r="34.945" style="fill:#f20d0d;stroke:#000;stroke-width:18.75px;"/><path d="M935.819,1022.8c17.159,-17.634 41.144,-28.594 67.668,-28.594c52.117,-0 94.428,42.311 94.428,94.428c0,21.13 -6.956,40.65 -18.701,56.39c-34.87,-53.332 -84.648,-96.053 -143.395,-122.224Z" style="fill:#104fa7;stroke:#104fa7;stroke-width:18.75px;"/></g><g><circle cx="1543.55" cy="1088.64" r="94.428" style="fill:#fff;stroke:#104fa7;stroke-width:18.75px;"/><circle cx="1537.51" cy="1080.13" r="34.945" style="fill:#f20d0d;stroke:#000;stroke-width:18.75px;"/><path d="M1611.22,1022.8c-17.16,-17.634 -41.144,-28.594 -67.669,-28.594c-52.116,-0 -94.428,42.311 -94.428,94.428c0,21.13 6.956,40.65 18.701,56.39c34.871,-53.332 84.648,-96.053 143.396,-122.224Z" style="fill:#104fa7;stroke:#104fa7;stroke-width:18.75px;"/></g></g></g></g></svg>